<?xml version="1.0" standalone="no"?>
<!DOCTYPE svg PUBLIC "-//W3C//DTD SVG 20010904//EN"
 "http://www.w3.org/TR/2001/REC-SVG-20010904/DTD/svg10.dtd">
<svg version="1.0" xmlns="http://www.w3.org/2000/svg"
 width="700.000000pt" height="700.000000pt" viewBox="0 0 700.000000 700.000000"
 preserveAspectRatio="xMidYMid meet">
<metadata>
Created by potrace 1.11, written by Peter Selinger 2001-2013
</metadata>
<g transform="translate(0.000000,700.000000) scale(0.100000,-0.100000)"
fill="#000000" stroke="none">
<path d="M3289 6926 c-2 -2 -48 -7 -102 -10 -53 -4 -103 -9 -110 -11 -6 -2
-34 -6 -62 -9 -27 -3 -72 -9 -100 -15 -27 -5 -68 -12 -90 -15 -22 -4 -92 -20
-155 -36 -63 -17 -123 -32 -134 -35 -47 -11 -191 -61 -296 -102 -264 -104
-486 -227 -764 -423 -104 -73 -286 -231 -395 -341 -387 -392 -657 -833 -828
-1349 -58 -178 -98 -338 -127 -515 -32 -193 -41 -312 -41 -560 0 -344 25 -556
101 -860 30 -119 115 -378 144 -437 11 -23 20 -45 20 -50 0 -15 128 -274 174
-351 25 -43 46 -81 46 -84 0 -7 196 -291 237 -343 121 -154 298 -342 443 -469
112 -99 390 -301 510 -370 142 -82 371 -195 461 -227 22 -7 54 -20 72 -28 50
-23 297 -99 357 -111 8 -2 35 -8 60 -15 25 -7 54 -14 65 -16 11 -2 31 -6 45
-9 14 -2 39 -7 55 -10 17 -3 44 -7 60 -11 39 -7 103 -15 290 -34 81 -9 478 -6
565 4 100 11 167 19 185 22 10 2 37 6 60 9 61 9 313 65 370 82 101 30 261 85
300 103 22 9 51 21 65 25 49 15 287 132 395 194 133 77 298 189 420 285 120
95 149 120 290 261 433 430 737 955 896 1551 17 63 32 124 34 137 3 12 9 45
15 72 5 28 12 66 15 85 3 19 7 46 10 60 43 238 51 635 19 920 -9 81 -15 119
-30 205 -2 11 -9 47 -15 80 -23 132 -91 376 -142 510 -38 99 -70 180 -77 194
-5 9 -34 69 -65 135 -230 478 -599 924 -1020 1235 -169 124 -204 148 -335 224
-73 43 -367 187 -420 207 -19 7 -48 18 -65 25 -111 48 -474 150 -605 170 -25
4 -54 9 -65 11 -19 4 -124 17 -233 30 -53 7 -498 15 -503 10z"/>
</g>
</svg>
